<svg width="100" height="100" viewBox="0 0 100 100" fill="none" xmlns="http://www.w3.org/2000/svg">
<path d="M73.5837 33.3124L50.0003 9.77075L26.417 33.3124C19.917 39.8124 16.667 48.4791 16.667 56.8124C16.667 65.1458 19.917 73.9374 26.417 80.4374C32.917 86.9374 41.4587 90.2291 50.0003 90.2291C58.542 90.2291 67.0837 86.9374 73.5837 80.4374C80.0837 73.9374 83.3337 65.1458 83.3337 56.8124C83.3337 48.4791 80.0837 39.8124 73.5837 33.3124ZM25.0003 58.3124C25.042 49.9791 27.5837 44.6874 32.3337 39.9791L50.0003 21.9374L67.667 40.1874C72.417 44.8541 74.9587 49.9791 75.0003 58.3124H25.0003Z" fill="#333333"/>
</svg>
