<svg width="100" height="100" viewBox="0 0 100 100" fill="none" xmlns="http://www.w3.org/2000/svg">
<path d="M26.3337 54.2084C30.3337 54.2918 34.042 56.2918 36.542 59.7918C39.5837 64.0834 44.6253 66.6668 50.0003 66.6668C55.3753 66.6668 60.417 64.0834 63.4587 59.7501C65.9587 56.2501 69.667 54.2501 73.667 54.1668C70.667 49.0834 58.667 45.8334 50.0003 45.8334C41.3753 45.8334 29.3337 49.0834 26.3337 54.2084Z" fill="#333333"/>
<path d="M16.667 54.1668C23.5837 54.1668 29.167 48.5834 29.167 41.6667C29.167 34.7501 23.5837 29.1667 16.667 29.1667C9.75033 29.1667 4.16699 34.7501 4.16699 41.6667C4.16699 48.5834 9.75033 54.1668 16.667 54.1668Z" fill="#333333"/>
<path d="M83.3337 54.1668C90.2503 54.1668 95.8337 48.5834 95.8337 41.6667C95.8337 34.7501 90.2503 29.1667 83.3337 29.1667C76.417 29.1667 70.8337 34.7501 70.8337 41.6667C70.8337 48.5834 76.417 54.1668 83.3337 54.1668Z" fill="#333333"/>
<path d="M50.0003 41.6667C56.917 41.6667 62.5003 36.0834 62.5003 29.1667C62.5003 22.2501 56.917 16.6667 50.0003 16.6667C43.0837 16.6667 37.5003 22.2501 37.5003 29.1667C37.5003 36.0834 43.0837 41.6667 50.0003 41.6667Z" fill="#333333"/>
<path d="M87.5003 58.3334H73.8753C70.667 58.3334 68.2503 60.2084 66.8753 62.1668C66.7087 62.4168 61.2087 70.8334 50.0003 70.8334C44.042 70.8334 37.3753 68.1668 33.1253 62.1668C31.5003 59.8751 28.9587 58.3334 26.1253 58.3334H12.5003C7.91699 58.3334 4.16699 62.0834 4.16699 66.6668V83.3334H33.3337V73.9168C38.1253 77.2501 43.917 79.1668 50.0003 79.1668C56.0837 79.1668 61.8753 77.2501 66.667 73.9168V83.3334H95.8337V66.6668C95.8337 62.0834 92.0837 58.3334 87.5003 58.3334Z" fill="#333333"/>
</svg>
