<svg width="150" height="150" viewBox="0 0 150 150" fill="none" xmlns="http://www.w3.org/2000/svg">
<path d="M40.625 62.5C26.8125 62.5 15.625 73.6875 15.625 87.5C15.625 101.312 26.8125 112.5 40.625 112.5C54.4375 112.5 65.625 101.312 65.625 87.5C65.625 73.6875 54.4375 62.5 40.625 62.5ZM40.625 100C33.75 100 28.125 94.375 28.125 87.5C28.125 80.625 33.75 75 40.625 75C47.5 75 53.125 80.625 53.125 87.5C53.125 94.375 47.5 100 40.625 100ZM90.6875 93.75C80.375 93.75 71.9375 102.188 71.9375 112.5C71.9375 122.812 80.375 131.25 90.6875 131.25C101 131.25 109.438 122.812 109.438 112.5C109.438 102.188 101 93.75 90.6875 93.75ZM90.6875 118.75C87.25 118.75 84.4375 115.938 84.4375 112.5C84.4375 109.062 87.25 106.25 90.6875 106.25C94.125 106.25 96.9375 109.062 96.9375 112.5C96.9375 115.938 94.125 118.75 90.6875 118.75ZM100 18.75C81.0625 18.75 65.625 34.1875 65.625 53.125C65.625 72.0625 81.0625 87.5 100 87.5C118.938 87.5 134.375 72.0625 134.375 53.125C134.375 34.1875 118.938 18.75 100 18.75ZM100 75C87.9375 75 78.125 65.1875 78.125 53.125C78.125 41.0625 87.9375 31.25 100 31.25C112.062 31.25 121.875 41.0625 121.875 53.125C121.875 65.1875 112.062 75 100 75Z" fill="#333333"/>
</svg>
