<svg width="150" height="150" viewBox="0 0 150 150" fill="none" xmlns="http://www.w3.org/2000/svg">
<path d="M104.406 33.0625L118.719 18.75H68.7188V68.75L83.0938 54.375C95.4063 63.5 103.406 78 103.406 94.5C103.406 102.688 101.406 110.375 97.9063 117.188C112.469 107.688 122.156 91.3125 122.156 72.625C122.156 56.875 115.219 42.8125 104.406 33.0625Z" fill="#333333"/>
<path d="M46.5938 55.5C46.5938 47.3125 48.5938 39.625 52.0938 32.8125C37.4688 42.3125 27.8438 58.6875 27.8438 77.375C27.8438 93.125 34.7188 107.187 45.5938 116.937L31.2188 131.25H81.2188V81.25L66.8438 95.625C54.5938 86.5 46.5938 72 46.5938 55.5Z" fill="#333333"/>
</svg>
