<svg width="100" height="100" viewBox="0 0 100 100" fill="none" xmlns="http://www.w3.org/2000/svg">
<path d="M41.6663 64.5834H66.1663C67.2913 63.2918 68.958 62.5001 70.833 62.5001C74.2913 62.5001 77.083 65.2918 77.083 68.7501C77.083 72.2084 74.2913 75.0001 70.833 75.0001C68.9997 75.0001 67.333 74.2084 66.1663 72.9168H49.583C47.6663 82.4168 39.2497 89.5834 29.1663 89.5834C17.6663 89.5834 8.33301 80.2501 8.33301 68.7501C8.33301 58.6668 15.4997 50.2501 24.9997 48.3334V56.9584C20.1663 58.6668 16.6663 63.3334 16.6663 68.7501C16.6663 75.6251 22.2913 81.2501 29.1663 81.2501C36.0413 81.2501 41.6663 75.6251 41.6663 68.7501V64.5834ZM52.083 18.7501C58.958 18.7501 64.583 24.3751 64.583 31.2501H72.9163C72.9163 19.7501 63.583 10.4167 52.083 10.4167C40.583 10.4167 31.2497 19.7501 31.2497 31.2501C31.2497 37.2084 33.7497 42.5417 37.708 46.3334L27.9163 62.5834C25.083 63.1668 22.9163 65.7084 22.9163 68.7501C22.9163 72.2084 25.708 75.0001 29.1663 75.0001C32.6247 75.0001 35.4163 72.2084 35.4163 68.7501C35.4163 68.0834 35.333 67.4584 35.1247 66.8751L49.208 43.4168C43.708 42.1251 39.583 37.1667 39.583 31.2501C39.583 24.3751 45.208 18.7501 52.083 18.7501ZM70.833 56.2501C68.1663 56.2501 65.708 57.0834 63.6663 58.5001L50.958 37.3751C48.0413 36.8751 45.833 34.3334 45.833 31.2501C45.833 27.7917 48.6247 25.0001 52.083 25.0001C55.5413 25.0001 58.333 27.7917 58.333 31.2501C58.333 31.8751 58.2497 32.4584 58.083 33.0417L67.208 48.2501C68.3747 48.0418 69.583 47.9168 70.833 47.9168C82.333 47.9168 91.6663 57.2501 91.6663 68.7501C91.6663 80.2501 82.333 89.5834 70.833 89.5834C63.1247 89.5834 56.3747 85.3751 52.7913 79.1668H63.9163C65.9163 80.5001 68.2913 81.2501 70.833 81.2501C77.708 81.2501 83.333 75.6251 83.333 68.7501C83.333 61.8751 77.708 56.2501 70.833 56.2501Z" fill="#333333"/>
</svg>
