<svg width="100" height="100" viewBox="0 0 100 100" fill="none" xmlns="http://www.w3.org/2000/svg">
<path d="M49.9997 8.33325C26.9997 8.33325 8.33301 26.9999 8.33301 49.9999C8.33301 72.9999 26.9997 91.6666 49.9997 91.6666C72.9997 91.6666 91.6663 72.9999 91.6663 49.9999C91.6663 26.9999 72.9997 8.33325 49.9997 8.33325ZM16.6663 49.9999C16.6663 47.4583 16.9997 44.9583 17.5413 42.5833L37.458 62.4999V66.6666C37.458 71.2499 41.208 74.9999 45.7913 74.9999V83.0416C29.4163 80.9583 16.6663 66.9583 16.6663 49.9999ZM74.5413 72.4999C73.458 69.1249 70.3747 66.6666 66.6247 66.6666H62.458V54.1666C62.458 51.8749 60.583 49.9999 58.2913 49.9999H33.2913V41.6666H41.6247C43.9163 41.6666 45.7913 39.7916 45.7913 37.4999V29.1666H54.1247C58.708 29.1666 62.458 25.4166 62.458 20.8333V19.1249C74.6663 24.0416 83.333 36.0416 83.333 49.9999C83.333 58.6666 79.958 66.5832 74.5413 72.4999Z" fill="#333333"/>
</svg>
