<svg width="150" height="150" viewBox="0 0 150 150" fill="none" xmlns="http://www.w3.org/2000/svg">
<path d="M87 50C84 32.25 68.5625 18.75 50 18.75C29.3125 18.75 12.5 35.5625 12.5 56.25C12.5 74.8125 26 90.25 43.75 93.25V131.25H56.25V93.1875C56.25 87.0625 51.8125 81.9375 45.8125 80.875C34 78.9375 25 68.625 25 56.25C25 42.4375 36.1875 31.25 50 31.25C62.375 31.25 72.6875 40.25 74.625 52.0625C75.6875 58.0625 80.8125 62.5 86.9375 62.5H113.562L103.625 72.4375L112.5 81.25L137.5 56.25L112.5 31.25L103.688 40.0625L113.562 50H87Z" fill="#333333"/>
</svg>
